Coordinates
version=1
nRows=14
nColumns=40
inDegrees=yes

Units are S.I. units (second, meters, Newtons, ...)
Angles are in degrees.

endheader
time	pelvis_tilt	pelvis_list	pelvis_rotation	pelvis_tx	pelvis_ty	pelvis_tz	hip_flexion_r	hip_adduction_r	hip_rotation_r	knee_angle_r	knee_angle_r_beta	ankle_angle_r	subtalar_angle_r	mtp_angle_r	hip_flexion_l	hip_adduction_l	hip_rotation_l	knee_angle_l	knee_angle_l_beta	ankle_angle_l	subtalar_angle_l	mtp_angle_l	lumbar_extension	lumbar_bending	lumbar_rotation	arm_flex_r	arm_add_r	arm_rot_r	elbow_flex_r	pro_sup_r	wrist_flex_r	wrist_dev_r	arm_flex_l	arm_add_l	arm_rot_l	elbow_flex_l	pro_sup_l	wrist_flex_l	wrist_dev_l
      2.14000000	     -3.75521457	     -4.31349801	     -5.61204536	      1.07328073	      0.93155651	      0.42741474	     23.03542493	     -1.13079999	    -14.00283936	      7.24563889	      7.24563889	      1.72166241	     13.68386217	     10.92073743	      5.30512105	     -5.29793288	    -12.21315778	     16.03226059	     16.03226059	     14.47237122	     -9.31955462	     -6.11616779	    -10.19454155	      3.98236854	      0.93601820	     -4.69071574	    -12.61998457	     -9.85623614	     32.56033154	     46.88394036	      0.00000000	      0.00000000	     23.14368016	    -20.29679300	     -3.90889697	     65.16884227	     46.95742539	      0.00000000	      0.00000000
      2.15357143	     -3.56421649	     -4.37500380	     -5.74040310	      1.07440278	      0.93130472	      0.42921947	     22.52375422	     -0.85741072	    -14.73020978	      7.61973536	      7.61973536	      1.47900835	     13.44340240	      9.62927158	      4.30335013	     -5.39997506	    -12.60573816	     15.49967908	     15.49967908	     14.75638958	     -8.64529972	     -6.30077094	    -10.29083599	      4.13572470	      0.89637019	     -4.16974016	    -12.46445464	     -9.83157882	     32.77572607	     46.85137150	      0.00000000	      0.00000000	     22.81094258	    -20.11353327	     -4.03467085	     65.17893319	     46.97745630	      0.00000000	      0.00000000
      2.16714286	     -3.49210726	     -4.35172633	     -5.82359238	      1.07556197	      0.93069337	      0.43108676	     22.33713275	     -0.74937096	    -14.85312145	      8.78626590	      8.78626590	      1.52926383	     12.31769752	      8.34135192	      3.62157137	     -5.43108330	    -12.78623675	     15.30149348	     15.30149348	     15.10494933	     -8.44363731	     -6.31432721	    -10.19385184	      4.18953211	      0.86785710	     -3.74813094	    -12.36245744	     -9.78497488	     32.99895475	     46.82873967	      0.00000000	      0.00000000	     22.50584423	    -19.95869445	     -4.06971158	     65.04648758	     46.98221241	      0.00000000	      0.00000000
      2.18071429	     -3.35931521	     -4.35722901	     -5.83024828	      1.07711739	      0.92991359	      0.43311832	     21.88080770	     -0.55032454	    -14.35499029	      9.76877219	      9.76877219	      0.23224198	     10.31028670	      3.13219666	      2.93573845	     -5.55924531	    -13.10645755	     15.30965154	     15.30965154	     15.81449625	     -7.77556518	     -5.96163207	    -10.11679036	      4.29068365	      0.74067768	     -3.42081584	    -12.35292860	     -9.46270680	     33.52244158	     46.72493628	      0.00000000	      0.00000000	     21.99706325	    -19.74904639	     -4.42433399	     64.95755035	     47.03202839	      0.00000000	      0.00000000
      2.19428571	     -3.18380844	     -4.31853198	     -5.78785426	      1.07886586	      0.92927261	      0.43504370	     21.64110507	     -0.58907753	    -14.07261524	     11.55191496	     11.55191496	      0.67463002	      8.97202271	      2.30194569	      2.08002963	     -5.55266420	    -13.19546690	     15.02759044	     15.02759044	     16.18814252	     -7.50762383	     -5.88786136	    -10.06330811	      4.34410907	      0.62456193	     -2.98973756	    -12.30377143	     -9.41777460	     33.84291402	     46.70258457	      0.00000000	      0.00000000	     21.53167028	    -19.59965348	     -4.34355091	     64.61771416	     47.02147338	      0.00000000	      0.00000000
      2.20785714	     -2.99801146	     -4.29786307	     -5.67863796	      1.08082706	      0.92852833	      0.43705368	     21.37645580	     -0.57453427	    -13.37620515	     13.30904182	     13.30904182	      1.10546900	      7.26722920	      1.36657487	      1.25737850	     -5.59817408	    -13.27350330	     14.85453716	     14.85453716	     16.64953063	     -7.15253840	     -5.72438522	     -9.98839395	      4.44991919	      0.46076688	     -2.58347051	    -12.28373326	     -9.36863943	     34.30151174	     46.67407889	      0.00000000	      0.00000000	     20.95182326	    -19.42600864	     -4.31513781	     64.17658082	     47.01217214	      0.00000000	      0.00000000
      2.22142857	     -2.82099656	     -4.36351512	     -5.51598295	      1.08297507	      0.92776699	      0.43929379	     20.95387015	     -0.32054051	    -12.12260654	     14.60561021	     14.60561021	      1.03366238	      4.82191643	     -0.60515491	      0.61042176	     -5.86483546	    -13.59073944	     15.10924902	     15.10924902	     17.73825356	     -6.13257138	     -4.54693287	     -9.89229640	      4.65412916	      0.36368942	     -2.53014565	    -12.40316518	     -8.94538356	     35.59598586	     46.55137095	      0.00000000	      0.00000000	     20.35394283	    -19.03727991	     -4.59545622	     63.54472871	     47.03511854	      0.00000000	      0.00000000
      2.23500000	     -2.62834193	     -4.30637402	     -5.31886063	      1.08523521	      0.92707067	      0.44137943	     20.69816634	     -0.34146298	    -11.41902807	     16.15739350	     16.15739350	      1.70161257	      3.59806313	     -1.17055236	     -0.17160581	     -5.89912956	    -13.60416112	     15.02878148	     15.02878148	     18.21731588	     -5.80046144	     -4.24010320	     -9.79129398	      4.72707881	      0.12652588	     -2.09506813	    -12.40809176	     -8.88158133	     36.15392464	     46.51791122	      0.00000000	      0.00000000	     19.62437227	    -18.86655721	     -4.53767259	     62.89309751	     47.01898668	      0.00000000	      0.00000000
      2.24857143	     -2.43656178	     -4.32942252	     -5.07544872	      1.08749976	      0.92651387	      0.44358686	     20.37940866	     -0.21414273	    -10.58499540	     17.40292281	     17.40292281	      2.38111224	      2.24567893	     -1.56418982	     -0.80483234	     -6.08742243	    -13.53883312	     15.23452477	     15.23452477	     18.72517302	     -5.46788088	     -3.76545609	     -9.70821177	      4.89295442	     -0.08293093	     -1.69185042	    -12.45831301	     -8.80079933	     36.88710877	     46.47654502	      0.00000000	      0.00000000	     18.83958085	    -18.59912602	     -4.56737797	     62.08951256	     47.00655842	      0.00000000	      0.00000000
      2.26214286	     -2.27139557	     -4.45997492	     -4.82025744	      1.08976056	      0.92618604	      0.44597607	     19.99784028	      0.09212405	     -9.73055537	     18.30328642	     18.30328642	      3.00141895	      0.82683365	     -1.78079815	     -1.15948250	     -6.53970968	    -13.74682762	     16.03358460	     16.03358460	     20.11349578	     -4.49485319	     -1.53787542	     -9.62609855	      5.18187420	      0.00313439	     -1.89875408	    -12.78804151	     -8.12328396	     38.84630552	     46.31441820	      0.00000000	      0.00000000	     18.37571386	    -17.85327822	     -5.07714371	     60.62810080	     47.03217775	      0.00000000	      0.00000000
      2.27571429	     -2.13892297	     -4.48351831	     -4.53948745	      1.09191179	      0.92596012	      0.44831386	     19.72159758	      0.20649973	     -9.26903051	     19.18618185	     19.18618185	      3.72385429	      0.00870140	     -2.06191249	     -1.45024683	     -6.81219376	    -13.50282593	     16.70354085	     16.70354085	     20.40959518	     -4.57797205	     -1.27029655	     -9.50201002	      5.33576462	     -0.26673874	     -1.35485869	    -12.86113352	     -8.05556900	     39.54775285	     46.27728284	      0.00000000	      0.00000000	     17.44012176	    -17.63412444	     -5.01607112	     59.64834827	     47.00808020	      0.00000000	      0.00000000
      2.28928571	     -2.02729039	     -4.55246440	     -4.24638929	      1.09393317	      0.92595968	      0.45079402	     19.39251409	      0.39764416	     -8.87419358	     19.80665761	     19.80665761	      4.38926400	     -0.76753978	     -2.24678172	     -1.47745171	     -7.21398424	    -13.17020645	     17.79962931	     17.79962931	     20.68769005	     -4.78348190	     -0.97375320	     -9.39029094	      5.53915187	     -0.42465036	     -0.87908757	    -12.98269282	     -7.91971021	     40.45428856	     46.22847887	      0.00000000	      0.00000000	     16.57749545	    -17.26671029	     -5.10736737	     58.42358632	     46.99311151	      0.00000000	      0.00000000
      2.30285714	     -1.92383038	     -4.63352642	     -3.94236909	      1.09581616	      0.92619929	      0.45341126	     19.00439689	      0.59971367	     -8.69937124	     20.23199527	     20.23199527	      5.00203010	     -1.36200077	     -2.40215431	     -1.25247231	     -7.70250073	    -12.78257718	     19.31269338	     19.31269338	     20.81753914	     -5.18070795	     -0.76547823	     -9.30324293	      5.71372950	     -0.52191496	     -0.44355752	    -13.16154146	     -7.71555411	     41.52599760	     46.17019920	      0.00000000	      0.00000000	     15.77246722	    -16.81051204	     -5.27189681	     57.00360602	     46.98184722	      0.00000000	      0.00000000
      2.31642857	     -1.67762615	     -4.71115541	     -3.64702777	      1.09758189	      0.92685089	      0.45611346	     18.39545340	      0.77621461	     -8.70648826	     20.50533638	     20.50533638	      5.61942619	     -1.64588037	     -2.60171041	     -1.00629602	     -8.21417346	    -12.30319708	     21.10355308	     21.10355308	     20.69432932	     -5.78274558	     -0.87292381	     -9.46100677	      5.84705209	     -0.44626714	      0.16186955	    -13.36264263	     -7.60857875	     42.34176006	     46.13313780	      0.00000000	      0.00000000	     14.95705400	    -16.41015839	     -5.31627614	     55.91170868	     46.96465127	      0.00000000	      0.00000000
